<svg width="535" height="698" viewBox="0 0 535 698" fill="none" xmlns="http://www.w3.org/2000/svg">
<path d="M267.5 0C415.236 0 535 119.764 535 267.5C535 318.381 520.793 365.943 496.132 406.438C495.296 408.145 494.32 409.84 493.197 411.514L316.892 674.304C295.695 705.898 239.305 705.898 218.108 674.304L41.8027 411.514C40.6797 409.84 39.7036 408.146 38.8682 406.439C14.2064 365.944 0 318.381 0 267.5C0 171.721 50.3373 87.6991 126 40.4463V268C126 346.424 189.576 410 268 410C346.424 410 410 346.424 410 268C410 189.576 346.424 126 268 126C240.887 126 215.55 133.6 194 146.784V10.2246C217.353 3.5656 242.01 0 267.5 0ZM268 194C308.869 194 342 227.131 342 268C342 308.869 308.869 342 268 342C227.131 342 194 308.869 194 268C194 227.131 227.131 194 268 194Z" fill="url(#paint0_linear_16_64)"/>
<defs>
<linearGradient id="paint0_linear_16_64" x1="125.5" y1="298" x2="521" y2="452" gradientUnits="userSpaceOnUse">
<stop stop-color="#FF9D2C"/>
<stop offset="1" stop-color="#FF2F00"/>
</linearGradient>
</defs>
</svg>
